<svg width="24" height="24" viewBox="0 0 24 24" fill="none" xmlns="http://www.w3.org/2000/svg">
<path d="M16.5 22H7.5C6.70435 22 5.94129 21.6839 5.37868 21.1213C4.81607 20.5587 4.5 19.7956 4.5 19V5C4.5 4.20435 4.81607 3.44129 5.37868 2.87868C5.94129 2.31607 6.70435 2 7.5 2H14.09C14.3523 2.0011 14.6037 2.10526 14.79 2.29L19.21 6.71C19.3947 6.89626 19.4989 7.14766 19.5 7.41V19C19.5 19.7956 19.1839 20.5587 18.6213 21.1213C18.0587 21.6839 17.2956 22 16.5 22Z" fill="#F44336"/>
<path d="M18.8 7.74H15.2C14.8022 7.74 14.4206 7.58197 14.1393 7.30066C13.858 7.01936 13.7 6.63783 13.7 6.24V2.64C13.6996 2.53091 13.7316 2.42415 13.792 2.33329C13.8524 2.24244 13.9385 2.17161 14.0392 2.1298C14.14 2.08799 14.2509 2.0771 14.3579 2.0985C14.4649 2.11991 14.5631 2.17264 14.64 2.25L19.19 6.8C19.2674 6.87693 19.3201 6.97513 19.3415 7.08211C19.3629 7.18908 19.352 7.30001 19.3102 7.40078C19.2684 7.50155 19.1976 7.58761 19.1067 7.64801C19.0159 7.70842 18.9091 7.74044 18.8 7.74V7.74Z" fill="#FF8A80"/>
<path d="M7.89001 19.13C7.8207 19.1401 7.75 19.1338 7.68353 19.1117C7.61706 19.0897 7.55666 19.0524 7.50714 19.0029C7.45761 18.9533 7.42033 18.8929 7.39826 18.8265C7.37619 18.76 7.36994 18.6893 7.38001 18.62V15.69C7.37029 15.6216 7.37644 15.552 7.39798 15.4863C7.41951 15.4207 7.45586 15.361 7.5042 15.3117C7.55254 15.2624 7.61158 15.2248 7.67675 15.202C7.74192 15.1792 7.81146 15.1716 7.88001 15.18C7.94151 15.1731 8.00379 15.1789 8.06293 15.1972C8.12208 15.2154 8.17683 15.2456 8.22375 15.286C8.27068 15.3264 8.30878 15.376 8.33566 15.4317C8.36255 15.4875 8.37764 15.5482 8.38001 15.61C8.46063 15.4696 8.58296 15.3578 8.73001 15.29C8.88744 15.2084 9.06269 15.1671 9.24001 15.17C9.46626 15.1669 9.68857 15.2294 9.88001 15.35C10.0687 15.4759 10.2178 15.6528 10.31 15.86C10.4159 16.1082 10.4705 16.3752 10.4705 16.645C10.4705 16.9148 10.4159 17.1818 10.31 17.43C10.1737 17.7078 9.93525 17.9223 9.64455 18.0285C9.35385 18.1347 9.03336 18.1245 8.75001 18C8.60821 17.9337 8.4872 17.83 8.40001 17.7V18.61C8.40578 18.6789 8.39721 18.7482 8.37484 18.8136C8.35246 18.879 8.31677 18.9391 8.27001 18.99C8.21925 19.0376 8.15947 19.0745 8.0942 19.0985C8.02892 19.1226 7.95949 19.1333 7.89001 19.13V19.13ZM8.89001 17.37C8.96285 17.3708 9.03493 17.355 9.10077 17.3238C9.1666 17.2926 9.22448 17.2469 9.27001 17.19C9.38148 17.0296 9.4312 16.8342 9.41001 16.64C9.43029 16.4458 9.38065 16.2508 9.27001 16.09C9.2226 16.036 9.16411 15.9929 9.09854 15.9636C9.03297 15.9342 8.96184 15.9194 8.89001 15.92C8.81659 15.9186 8.74374 15.9331 8.67643 15.9624C8.60912 15.9917 8.54894 16.0353 8.50001 16.09C8.39457 16.2531 8.3454 16.4463 8.36001 16.64C8.34388 16.8338 8.39317 17.0275 8.50001 17.19C8.54954 17.2525 8.61388 17.3018 8.68721 17.3332C8.76055 17.3646 8.84056 17.3773 8.92001 17.37H8.89001Z" fill="#FFEBEE"/>
<path d="M12.17 18.11C11.9476 18.1184 11.728 18.0591 11.54 17.94C11.3484 17.8147 11.1959 17.6379 11.1 17.43C10.9941 17.1818 10.9395 16.9148 10.9395 16.645C10.9395 16.3752 10.9941 16.1082 11.1 15.86C11.1959 15.6521 11.3484 15.4753 11.54 15.35C11.7271 15.228 11.9467 15.1652 12.17 15.17C12.344 15.1684 12.5157 15.2096 12.67 15.29C12.8082 15.3527 12.9285 15.4489 13.02 15.57V14.48C13.0099 14.4107 13.0162 14.34 13.0383 14.2735C13.0603 14.2071 13.0976 14.1467 13.1471 14.0971C13.1966 14.0476 13.257 14.0103 13.3235 13.9883C13.39 13.9662 13.4607 13.9599 13.53 13.97C13.5973 13.965 13.6649 13.974 13.7286 13.9964C13.7922 14.0187 13.8506 14.054 13.9 14.1C13.9468 14.1509 13.9824 14.211 14.0048 14.2764C14.0272 14.3418 14.0358 14.4111 14.03 14.48V17.59C14.0406 17.7226 13.9981 17.854 13.9118 17.9553C13.8256 18.0565 13.7026 18.1194 13.57 18.13C13.5043 18.1353 13.4383 18.1275 13.3756 18.1072C13.3129 18.087 13.2549 18.0546 13.2047 18.0118C13.1035 17.9256 13.0406 17.8026 13.03 17.67C12.953 17.8097 12.8341 17.9217 12.69 17.99C12.5286 18.0706 12.3504 18.1117 12.17 18.11V18.11ZM12.5 17.37C12.5728 17.3708 12.6449 17.355 12.7108 17.3238C12.7766 17.2926 12.8345 17.2469 12.88 17.19C12.9958 17.0313 13.0492 16.8355 13.03 16.64C13.0474 16.4446 12.9942 16.2495 12.88 16.09C12.8326 16.036 12.7741 15.9929 12.7085 15.9636C12.643 15.9342 12.5718 15.9194 12.5 15.92C12.4281 15.9187 12.3567 15.9333 12.291 15.9626C12.2254 15.992 12.167 16.0355 12.12 16.09C12.0058 16.2495 11.9526 16.4446 11.97 16.64C11.9508 16.8355 12.0042 17.0313 12.12 17.19C12.1645 17.2481 12.2221 17.2947 12.2882 17.326C12.3543 17.3573 12.4269 17.3724 12.5 17.37V17.37Z" fill="#FFEBEE"/>
<path d="M15.52 18.1C15.4511 18.108 15.3813 18.1003 15.3157 18.0775C15.2502 18.0547 15.1907 18.0174 15.1417 17.9683C15.0926 17.9193 15.0553 17.8598 15.0325 17.7943C15.0097 17.7287 15.002 17.6589 15.01 17.59V16H14.86C14.8078 16.0082 14.7544 16.0042 14.704 15.9881C14.6536 15.9721 14.6077 15.9445 14.5698 15.9077C14.532 15.8708 14.5032 15.8256 14.4859 15.7756C14.4686 15.7257 14.4631 15.6724 14.47 15.62C14.47 15.37 14.6 15.25 14.86 15.25H15C14.9956 15.0896 15.0235 14.93 15.0819 14.7806C15.1403 14.6311 15.228 14.4949 15.34 14.38C15.598 14.1609 15.9218 14.0342 16.26 14.02H16.43C16.5231 13.9827 16.6269 13.9827 16.72 14.02C16.7875 14.0585 16.8402 14.1183 16.87 14.19C16.8848 14.2626 16.8848 14.3374 16.87 14.41C16.8585 14.4805 16.8273 14.5464 16.78 14.6C16.7356 14.6558 16.6708 14.6918 16.6 14.7H16.52C16.3738 14.6934 16.2296 14.7357 16.11 14.82C16.0713 14.8613 16.0415 14.9101 16.0225 14.9635C16.0036 15.0168 15.9959 15.0735 16 15.13V15.22H16.32C16.58 15.22 16.71 15.34 16.71 15.59C16.7169 15.6424 16.7114 15.6957 16.6941 15.7456C16.6767 15.7956 16.648 15.8408 16.6101 15.8777C16.5723 15.9145 16.5264 15.9421 16.476 15.9581C16.4256 15.9742 16.3722 15.9782 16.32 15.97H16V17.57C16.0125 17.638 16.0092 17.708 15.9903 17.7746C15.9714 17.8411 15.9374 17.9024 15.891 17.9536C15.8446 18.0049 15.7869 18.0448 15.7226 18.0702C15.6582 18.0956 15.5889 18.1058 15.52 18.1V18.1Z" fill="#FFEBEE"/>
</svg>
