<svg width="24" height="24" viewBox="0 0 24 24" fill="none" xmlns="http://www.w3.org/2000/svg">
<path d="M16.5 22H7.5C6.70435 22 5.94129 21.6839 5.37868 21.1213C4.81607 20.5587 4.5 19.7956 4.5 19V5C4.5 4.20435 4.81607 3.44129 5.37868 2.87868C5.94129 2.31607 6.70435 2 7.5 2H14.09C14.3523 2.0011 14.6037 2.10526 14.79 2.29L19.21 6.71C19.3947 6.89626 19.4989 7.14766 19.5 7.41V19C19.5 19.7956 19.1839 20.5587 18.6213 21.1213C18.0587 21.6839 17.2956 22 16.5 22Z" fill="#2196F3"/>
<path d="M18.8 7.74H15.2C14.8022 7.74 14.4206 7.58197 14.1393 7.30066C13.858 7.01936 13.7 6.63783 13.7 6.24V2.64C13.6996 2.53091 13.7316 2.42415 13.792 2.33329C13.8524 2.24244 13.9385 2.17161 14.0392 2.1298C14.14 2.08799 14.2509 2.0771 14.3579 2.0985C14.4649 2.11991 14.5631 2.17264 14.64 2.25L19.19 6.8C19.2674 6.87693 19.3201 6.97513 19.3415 7.08211C19.3629 7.18908 19.352 7.30001 19.3102 7.40078C19.2684 7.50155 19.1976 7.58761 19.1067 7.64801C19.0159 7.70842 18.9091 7.74044 18.8 7.74V7.74Z" fill="#82B1FF"/>
<path d="M8.3 18.11C8.07468 18.1167 7.85228 18.0576 7.66 17.94C7.47135 17.8141 7.32225 17.6372 7.23 17.43C7.1241 17.1818 7.0695 16.9148 7.0695 16.645C7.0695 16.3752 7.1241 16.1082 7.23 15.86C7.32225 15.6528 7.47135 15.4759 7.66 15.35C7.85144 15.2294 8.07375 15.1669 8.3 15.17C8.4709 15.1675 8.63961 15.2088 8.79 15.29C8.92987 15.3499 9.05085 15.4467 9.14 15.57V14.48C9.1349 14.413 9.14485 14.3458 9.16912 14.2832C9.1934 14.2205 9.23138 14.1641 9.28028 14.1181C9.32919 14.0721 9.38778 14.0376 9.45175 14.0171C9.51573 13.9967 9.58347 13.9908 9.65 14C9.71879 13.9954 9.78782 14.0045 9.85306 14.0268C9.91829 14.0491 9.97844 14.0842 10.03 14.13C10.0768 14.1809 10.1125 14.241 10.1348 14.3064C10.1572 14.3718 10.1658 14.4411 10.16 14.51V17.62C10.1697 17.6884 10.1636 17.758 10.142 17.8237C10.1205 17.8893 10.0841 17.949 10.0358 17.9983C9.98747 18.0476 9.92843 18.0852 9.86326 18.108C9.79809 18.1308 9.72854 18.1384 9.66 18.13C9.59823 18.1385 9.53535 18.1338 9.47554 18.1162C9.41572 18.0985 9.36034 18.0684 9.31306 18.0277C9.26578 17.9871 9.22769 17.9368 9.2013 17.8803C9.17491 17.8238 9.16083 17.7624 9.16 17.7C9.07937 17.8404 8.95705 17.9522 8.81 18.02C8.64993 18.0913 8.47481 18.1222 8.3 18.11ZM8.63 17.37C8.70141 17.3708 8.77203 17.3549 8.83625 17.3237C8.90047 17.2924 8.95653 17.2467 9 17.19C9.11584 17.0313 9.16923 16.8355 9.15 16.64C9.16739 16.4446 9.11417 16.2495 9 16.09C8.95456 16.0363 8.89786 15.9932 8.83392 15.9638C8.76998 15.9344 8.70036 15.9195 8.63 15.92C8.55659 15.9186 8.48374 15.933 8.41643 15.9624C8.34912 15.9917 8.28894 16.0353 8.24 16.09C8.12583 16.2495 8.07261 16.4446 8.09 16.64C8.07076 16.8355 8.12416 17.0313 8.24 17.19C8.28656 17.2482 8.34605 17.2948 8.41374 17.3261C8.48144 17.3573 8.55548 17.3723 8.63 17.37V17.37Z" fill="#E3F2FD"/>
<path d="M12.32 18.11C12.0369 18.1209 11.7554 18.0626 11.5 17.94C11.2732 17.8276 11.0852 17.65 10.96 17.43C10.8287 17.1892 10.7599 16.9193 10.7599 16.645C10.7599 16.3707 10.8287 16.1008 10.96 15.86C11.0852 15.64 11.2732 15.4624 11.5 15.35C11.7545 15.224 12.0361 15.1622 12.32 15.17C12.6037 15.1645 12.8847 15.2262 13.14 15.35C13.3648 15.4653 13.5521 15.6422 13.68 15.86C13.8046 16.1029 13.8696 16.372 13.8696 16.645C13.8696 16.918 13.8046 17.1871 13.68 17.43C13.5521 17.6478 13.3648 17.8247 13.14 17.94C12.8838 18.0603 12.6029 18.1186 12.32 18.11V18.11ZM12.32 17.37C12.3915 17.3716 12.4624 17.3561 12.5268 17.3248C12.5911 17.2935 12.6471 17.2473 12.69 17.19C12.8058 17.0313 12.8592 16.8355 12.84 16.64C12.8574 16.4446 12.8042 16.2495 12.69 16.09C12.645 16.0357 12.5884 15.9923 12.5244 15.9629C12.4603 15.9334 12.3905 15.9188 12.32 15.92C12.2466 15.9186 12.1737 15.9331 12.1064 15.9624C12.0391 15.9917 11.9789 16.0353 11.93 16.09C11.8194 16.2508 11.7697 16.4458 11.79 16.64C11.7688 16.8342 11.8185 17.0296 11.93 17.19C11.9766 17.2482 12.036 17.2948 12.1037 17.3261C12.1714 17.3573 12.2455 17.3724 12.32 17.37V17.37Z" fill="#E3F2FD"/>
<path d="M15.92 18.11C15.6337 18.121 15.3489 18.0626 15.09 17.94C14.8622 17.8254 14.6715 17.6485 14.54 17.43C14.4071 17.1884 14.3415 16.9156 14.35 16.64C14.3405 16.3643 14.4061 16.0912 14.54 15.85C14.6694 15.6322 14.8609 15.4581 15.09 15.35C15.3481 15.2239 15.6329 15.1622 15.92 15.17C16.0363 15.1563 16.1537 15.1563 16.27 15.17C16.3978 15.1894 16.5223 15.2264 16.64 15.28C16.7195 15.3105 16.7864 15.3669 16.83 15.44C16.872 15.5089 16.8896 15.5899 16.88 15.67C16.878 15.7454 16.8537 15.8185 16.81 15.88C16.7936 15.9114 16.7709 15.9392 16.7434 15.9615C16.7159 15.9839 16.6841 16.0004 16.65 16.01C16.6121 16.0265 16.5713 16.035 16.53 16.035C16.4887 16.035 16.4478 16.0265 16.41 16.01C16.2917 15.9519 16.1618 15.9212 16.03 15.92C15.9433 15.9142 15.8564 15.9273 15.7752 15.9583C15.6941 15.9894 15.6206 16.0378 15.56 16.1C15.4416 16.2467 15.3811 16.4317 15.39 16.62C15.3801 16.8084 15.4407 16.9938 15.56 17.14C15.6184 17.2058 15.6912 17.2572 15.7727 17.2901C15.8542 17.3231 15.9423 17.3367 16.03 17.33H16.21L16.41 17.26C16.4478 17.2435 16.4887 17.235 16.53 17.235C16.5713 17.235 16.6121 17.2435 16.65 17.26C16.7179 17.2814 16.7751 17.3279 16.81 17.39C16.8494 17.4536 16.8733 17.5255 16.88 17.6C16.8789 17.6792 16.8619 17.7575 16.83 17.83C16.7821 17.9033 16.712 17.9594 16.63 17.99C16.5107 18.039 16.3867 18.0759 16.26 18.1L15.92 18.11Z" fill="#E3F2FD"/>
</svg>
