<svg width="32" height="32" viewBox="0 0 32 32" fill="none" xmlns="http://www.w3.org/2000/svg">
<path opacity="0.2" d="M26.75 12H4.25C3.55964 12 3 12.5596 3 13.25V26.75C3 27.4404 3.55964 28 4.25 28H26.75C27.4404 28 28 27.4404 28 26.75V13.25C28 12.5596 27.4404 12 26.75 12Z" fill="#D3D7DD"/>
<path d="M3 21.75C3 22.442 3.5575 23 4.25 23H26.75C27.442 23 28 22.442 28 21.75V8.25C28 7.5575 27.442 7 26.75 7H14V6.25C14 5.5575 13.443 5 12.75 5H4.25C3.5575 5 3 5.5575 3 6.25" fill="#D3D7DD"/>
<path opacity="0.2" d="M26.75 10H4.25C3.55964 10 3 10.5596 3 11.25V24.75C3 25.4404 3.55964 26 4.25 26H26.75C27.4404 26 28 25.4404 28 24.75V11.25C28 10.5596 27.4404 10 26.75 10Z" fill="#D3D7DD"/>
<path d="M24.75 9H6.25C5.55964 9 5 9.55964 5 10.25V17.75C5 18.4404 5.55964 19 6.25 19H24.75C25.4404 19 26 18.4404 26 17.75V10.25C26 9.55964 25.4404 9 24.75 9Z" fill="#D3D7DD"/>
<path d="M26.75 11H4.25C3.55964 11 3 11.5596 3 12.25V25.75C3 26.4404 3.55964 27 4.25 27H26.75C27.4404 27 28 26.4404 28 25.75V12.25C28 11.5596 27.4404 11 26.75 11Z" fill="#D3D7DD"/>
<path opacity="0.1" d="M4.25 5C3.5575 5 3 5.5575 3 6.25V7.25C3 6.5575 3.5575 6 4.25 6H12.75C13.443 6 14 6.5575 14 7.25V8H26.75C27.442 8 28 8.5575 28 9.25V8.25C28 7.5575 27.442 7 26.75 7H14V6.25C14 5.5575 13.443 5 12.75 5H4.25Z" fill="#D3D7DD"/>
</svg>
