<svg width="189" height="263" viewBox="0 0 189 263" fill="none" xmlns="http://www.w3.org/2000/svg">
<rect width="189" height="213" fill="#292727"/>
<path fill-rule="evenodd" clip-rule="evenodd" d="M102.375 133.125V143.515C109.088 146.189 114.408 152.185 116.781 159.75H157.5V177.5H116.781C113.537 187.841 104.786 195.25 94.5 195.25C84.2135 195.25 75.4625 187.841 72.2193 177.5H31.5V159.75H72.2193C74.5919 152.185 79.9122 146.189 86.625 143.515V133.125H56.9779C34.3058 133.125 15.75 113.375 15.75 88.75C15.75 67.9479 29.0739 50.3556 47.23 45.6232C56.5325 28.5845 74.5804 17.75 94.5 17.75C117.973 17.75 138.547 32.7829 145.634 54.5583C161.573 59.0668 173.25 74.6878 173.25 93.1875C173.25 115.361 156.561 133.125 136.191 133.125H102.375ZM94.5 177.5C98.8492 177.5 102.375 173.527 102.375 168.625C102.375 163.723 98.8492 159.75 94.5 159.75C90.1508 159.75 86.625 163.723 86.625 168.625C86.625 173.527 90.1508 177.5 94.5 177.5ZM157.5 93.1875C157.5 81.9891 149.421 72.4328 138.653 71.146L133.073 70.4792L131.81 64.3176C128.452 47.9303 112.978 35.5 94.5 35.5C78.8566 35.5 65.1337 44.4402 59.353 57.5466L57.4885 61.7741L53.3357 62.3943C40.799 64.2667 31.5 75.56 31.5 88.75C31.5 103.338 42.8094 115.375 56.9779 115.375H136.191C148.057 115.375 157.5 105.324 157.5 93.1875Z" fill="#FD640F"/>
<path d="M15.5 251V223.6L15 218.6L15.5 215.6H24.55V251H15.5ZM30.5273 251V235.95L29.5273 230.45L31.0773 227.4H38.5273V229.55L38.9773 229.85C39.344 229.517 39.844 229.133 40.4773 228.7C41.144 228.233 41.944 227.817 42.8773 227.45C43.8107 227.083 44.8607 226.9 46.0273 226.9C49.0273 226.9 51.2773 227.75 52.7773 229.45C54.2773 231.15 55.0273 233.533 55.0273 236.6V242.95L56.0773 247.95L55.0273 251H46.0273V237.9C46.0273 236.633 45.744 235.667 45.1773 235C44.644 234.3 43.794 233.95 42.6273 233.95L39.5273 234.9V251H30.5273ZM61.8984 251V223.65L60.8984 218.65L61.8984 215.6H76.7984C79.1984 215.6 81.4984 215.833 83.6984 216.3C85.9318 216.733 87.9151 217.567 89.6484 218.8C91.4151 220.033 92.7984 221.8 93.7984 224.1C94.8318 226.4 95.3484 229.383 95.3484 233.05C95.3484 236.717 94.8318 239.733 93.7984 242.1C92.7651 244.433 91.3651 246.25 89.5984 247.55C87.8318 248.85 85.8318 249.75 83.5984 250.25C81.3984 250.75 79.1318 251 76.7984 251H61.8984ZM70.9984 243H76.7984C79.7318 243 81.9818 242.233 83.5484 240.7C85.1151 239.133 85.8984 236.583 85.8984 233.05C85.8984 229.517 85.0984 227.067 83.4984 225.7C81.9318 224.3 79.6984 223.6 76.7984 223.6H70.9984V243ZM100.402 251V235.35L99.3516 230.35L100.402 227.35H107.202L108.202 228.5C108.202 228.5 108.435 228.367 108.902 228.1C109.368 227.8 110.018 227.517 110.852 227.25C111.718 226.983 112.718 226.85 113.852 226.85C114.518 226.85 115.185 226.9 115.852 227C116.518 227.1 117.035 227.233 117.402 227.4L120.652 230.15L117.402 236.55L110.802 233.8L109.302 234.3V251H100.402ZM128.143 225.95L121.793 219.55L128.143 213.2L134.493 219.55L128.143 225.95ZM123.643 251V234.45L122.593 230.45L123.593 227.4H132.643V251H123.643ZM143.042 251L136.742 233.9L135.742 227.4H145.242L147.992 243H148.992L151.792 227.4H161.242L160.242 233.9L153.542 251H143.042ZM175.279 251.5C172.713 251.5 170.429 251.117 168.429 250.35C166.429 249.583 164.863 248.3 163.729 246.5C162.596 244.7 162.029 242.267 162.029 239.2C162.029 237 162.396 235.117 163.129 233.55C163.896 231.983 164.913 230.717 166.179 229.75C167.446 228.75 168.863 228.033 170.429 227.6C171.996 227.133 173.613 226.9 175.279 226.9C178.146 226.9 180.346 227.183 181.879 227.75C183.446 228.317 184.479 228.767 184.979 229.1L187.479 237.05L186.479 240.15H170.979C171.213 241.383 171.829 242.417 172.829 243.25C173.829 244.083 175.479 244.5 177.779 244.5C179.579 244.5 181.129 244.3 182.429 243.9C183.729 243.5 184.746 243.15 185.479 242.85V249.55C184.479 250.083 183.029 250.55 181.129 250.95C179.263 251.317 177.313 251.5 175.279 251.5ZM171.029 236.95L177.929 235.95L177.479 233.8C177.246 233.667 176.896 233.567 176.429 233.5C175.996 233.433 175.613 233.4 175.279 233.4C174.346 233.4 173.563 233.6 172.929 234C172.329 234.4 171.863 234.883 171.529 235.45C171.229 235.983 171.063 236.483 171.029 236.95Z" fill="white"/>
</svg>
