<svg width="30" height="30" viewBox="0 0 30 30" fill="none" xmlns="http://www.w3.org/2000/svg">
<g clip-path="url(#clip0_24_224)">
<path d="M29.5299 9.69679C29.1854 9.29739 28.6941 9.05714 28.1704 9.02852V4.99223C28.1704 3.02586 26.5705 1.42613 24.6043 1.42613H18.8138C16.8864 1.42613 15.8636 2.23978 15.1166 2.83362C14.5158 3.31126 14.1533 3.59991 13.3762 3.59991H5.0074C3.25525 3.59991 1.82952 4.98907 1.82952 6.69696V9.02852C1.30607 9.05722 0.814554 9.29739 0.470204 9.69679C0.102583 10.1226 -0.0615243 10.6878 0.0208538 11.2446L2.34366 26.9219C2.48417 27.8709 3.29871 28.5739 4.25814 28.5739H25.7415C26.7011 28.5739 27.5157 27.8709 27.6562 26.9219L29.979 11.2446C30.0615 10.6878 29.8977 10.1226 29.5299 9.69679ZM21.3676 18.3228C20.9934 18.3228 20.642 18.2233 20.3378 18.0503L18.5327 19.579C18.6942 19.8754 18.7862 20.215 18.7862 20.5757C18.7862 21.7279 17.8488 22.6653 16.6967 22.6653C15.5445 22.6653 14.6071 21.7279 14.6071 20.5757C14.6071 19.9577 14.877 19.4019 15.3048 19.019L14.559 17.3937C14.4225 17.4219 14.2812 17.4367 14.1364 17.4367C13.6555 17.4367 13.2124 17.2731 12.8589 16.9989L10.6563 18.2069C10.699 18.3731 10.7218 18.5472 10.7218 18.7265C10.7218 19.8787 9.78444 20.8161 8.63228 20.8161C7.48013 20.8161 6.54275 19.8787 6.54275 18.7265C6.54275 17.5744 7.48021 16.6371 8.63228 16.6371C9.20561 16.6371 9.72566 16.8693 10.1037 17.2445L12.1882 16.1013C12.0973 15.8672 12.0468 15.613 12.0468 15.3472C12.0468 14.1949 12.9842 13.2576 14.1364 13.2576C15.2886 13.2576 16.2259 14.195 16.2259 15.3472C16.2259 15.9559 15.964 16.5045 15.5473 16.8868L16.2988 18.5246C16.4277 18.4997 16.5606 18.4861 16.6967 18.4861C17.0851 18.4861 17.4489 18.593 17.7608 18.7784L19.5504 17.2629C19.3774 16.9586 19.278 16.6074 19.278 16.2331C19.278 15.081 20.2155 14.1437 21.3676 14.1437C22.5197 14.1437 23.4571 15.081 23.4571 16.2331C23.4572 17.3854 22.5198 18.3228 21.3676 18.3228ZM25.8398 9.02585H4.16003V6.69696C4.16003 6.21696 4.59089 5.93001 5.0074 5.93001H13.3762C14.9674 5.93001 15.8545 5.22469 16.5671 4.65794C17.2245 4.13423 17.7004 3.7564 18.8138 3.7564H24.6043C25.2854 3.7564 25.8397 4.31067 25.8397 4.99223V9.02585H25.8398Z" fill="#D3D7DD"/>
</g>
<defs>
<clipPath id="clip0_24_224">
<rect width="30" height="30" fill="white"/>
</clipPath>
</defs>
</svg>
